# xmcd
#
# Track frame offsets: 
#        150
#        19890
#        39552
#        58285
#        79190
#        98212
#        121065
#        134275
#        152635
#        173982
#        192550
#        217530
#        241900
#        252067
#        285725
#        303977
#
# Disc length: 4304 seconds
#
# Revision: 5
# Processed by: cddbd v1.5.2PL0 Copyright (c) Steve Scherf et al.
# Submitted via: ExactAudioCopy v0.99pb5
#
DISCID=d710ce10,dc10ce10
DTITLE=Peps Persson - Peps Bitar 1968-1992 [CD2'2)
DYEAR=1993
DGENRE=Blues
TTITLE0=Vilddjurets tecken
TTITLE1=Maskin nr. 2
TTITLE2=Spår
TTITLE3=Hyreskasern
TTITLE4=Rotrock
TTITLE5=Främmande
TTITLE6=Liden vid kanin
TTITLE7=Jag har bott vid en landsväg
TTITLE8=Lite grann från ovan
TTITLE9=Enighet
TTITLE10=Håll ut
TTITLE11=Lived på lanned
TTITLE12=Bom bom -- sen blir det svart
TTITLE13=Samma sång
TTITLE14=Oh boy!
TTITLE15=För livet
EXTD=
EXTT0=
EXTT1=
EXTT2=
EXTT3=
EXTT4=
EXTT5=
EXTT6=
EXTT7=
EXTT8=
EXTT9=
EXTT10=
EXTT11=
EXTT12=
EXTT13=
EXTT14=
EXTT15=
PLAYORDER=
